<?xml version="1.0" encoding="utf-8"?>
<!-- Generator: Adobe Illustrator 25.0.0, SVG Export Plug-In . SVG Version: 6.00 Build 0)  -->
<svg version="1.1" id="Layer_1" xmlns="http://www.w3.org/2000/svg" xmlns:xlink="http://www.w3.org/1999/xlink" x="0px" y="0px"
	 viewBox="0 0 35.9 32" style="enable-background:new 0 0 35.9 32;" xml:space="preserve">
<style type="text/css">
	.st0{fill:#B7A0EF;}
</style>
<g>
	<g>
		<path class="st0" d="M28.4,27.5c0,0.3,0.2,0.4,0.4,0.6c1.4,0.9,2.8,1.5,4.5,1.4c0.2,0,0.4-0.1,0.6,0.1c-1,1-4.4,0.7-7-0.6
			c-0.5,0-0.9-0.2-1.3-0.5c-2.6-2.1-4.7-4.7-6.9-7.1c-2.1-2.3-4.1-4.6-6.2-6.9c-0.3-0.3-0.6-0.5-0.9-0.7c-0.2-0.1-0.4-0.3-0.4-0.5
			c0.1-0.3,0.3-0.3,0.6-0.3c1,0,2-0.1,2.9-0.3c0.5-0.1,1-0.3,1.5-0.7c0.8-0.6,1.3-1.3,1.5-2.3c0.3-1.4,0.2-2.8-0.3-4.1
			c-0.6-1.5-1.7-2.2-3.2-2.2c-0.8,0-1.5,0-2.3,0c-1.4,0-1.4,0-1.4,1.4c0,5.4,0,10.8,0,16.2c0,0.2,0,0.5,0,0.7c0,1.3,0.5,1.8,1.7,2.2
			c0.3,0.1,0.6,0.1,0.6,0.4c0,0.3-0.4,0.3-0.7,0.3c-1.9,0-3.8,0-5.7,0c-0.3,0-0.6,0-0.6-0.4c0-0.3,0.3-0.3,0.5-0.4
			c1.4-0.5,1.6-0.8,1.6-2.2c0-5.6,0-11.2,0-16.8c0-1.4-0.3-1.8-1.6-2.2C6,2.5,5.7,2.5,5.7,2.2c0-0.3,0.4-0.3,0.6-0.3
			c0.2,0,0.3,0,0.5,0c2.7,0,5.4,0,8.1,0c2.5,0,4.8,1.5,5.5,3.8c0.9,2.9,0.2,5.9-2.4,7.8c-0.6,0.5-1.4,0.6-2.3,1
			c3.9,4.1,7.4,8.5,11.6,12.2C27.6,26.9,27.9,27.3,28.4,27.5z"/>
	</g>
</g>
</svg>
