<?xml version="1.0" encoding="utf-8"?>
<!-- Generator: Adobe Illustrator 25.0.0, SVG Export Plug-In . SVG Version: 6.00 Build 0)  -->
<svg version="1.1" id="Layer_1" xmlns="http://www.w3.org/2000/svg" xmlns:xlink="http://www.w3.org/1999/xlink" x="0px" y="0px"
	 viewBox="0 0 400 300" style="enable-background:new 0 0 400 300;" xml:space="preserve">
<style type="text/css">
	.st0{fill:#B7A0EF;}
	.st1{fill:#3F0CBC;}
</style>
<g>
	<g>
		<path class="st0" d="M300.54,242.22c-0.12,2.19,1.47,3.02,3.02,4.01c9.89,6.32,20.38,10.69,32.39,10.42
			c1.5-0.03,3.16-0.56,4.53,0.64c-6.95,7.19-31.92,4.93-51.07-4.59c-3.37-0.33-6.38-1.6-9.17-3.47
			c-19.1-14.99-34.22-33.85-50.32-51.76c-14.92-16.58-29.96-33.04-44.82-49.68c-1.88-2.1-4.35-3.47-6.62-5.09
			c-1.29-0.92-2.92-1.89-2.55-3.71c0.45-2.16,2.53-2.43,4.3-2.46c7.18-0.1,14.31-0.47,21.3-2.38c3.88-1.06,7.61-2.35,10.85-4.8
			c5.6-4.22,9.39-9.6,11.04-16.54c2.44-10.26,1.49-20.23-2.26-29.96c-4.09-10.61-12.09-16.06-23.4-16.21
			c-5.57-0.07-11.15-0.02-16.72-0.02c-10.3,0-10.3,0-10.3,10.05c0,39.1,0,78.2,0,117.3c0,1.8-0.03,3.59,0.01,5.39
			c0.2,9.25,3.39,13.4,12.19,15.94c1.82,0.52,4.56,0.48,4.27,3.17c-0.27,2.47-2.89,2.47-4.81,2.5c-13.73,0.21-27.47,0.23-41.21-0.01
			c-1.9-0.03-4.45-0.02-4.7-2.62c-0.22-2.32,2.16-2.48,3.79-3.06c9.79-3.47,11.58-5.85,11.59-16.1c0.03-40.5,0.04-80.99,0-121.49
			c-0.01-10.15-2.11-12.89-11.72-15.92c-1.64-0.52-3.97-0.63-3.63-3.08c0.31-2.24,2.54-2.17,4.28-2.44
			c1.18-0.18,2.38-0.14,3.58-0.14c19.51-0.01,39.02-0.13,58.53,0.03c18.08,0.15,34.81,11.14,39.68,27.37
			c6.36,21.2,1.38,42.57-17.25,56.8c-4.69,3.58-10.38,4.63-16.55,6.97c28.16,29.82,53.46,61.41,83.77,88.25
			C295.22,237.74,297.36,240.61,300.54,242.22z"/>
		<path class="st1" d="M300.54,242.22c-4.08,0.99-5.34-2.25-7.1-4.74c0.11-2.84,2.05-4.68,3.66-6.67
			c17.44-21.63,26.6-46.21,28.31-74.11c4.11-66.75-44.47-125.21-110.11-133.96c-41.35-5.51-77.47,6.38-107.53,35.82
			c-26.06,25.51-39.11,56.81-38.5,92.94c1.12,66.32,49.66,117.82,111.22,125.67c33.72,4.3,65.38-2.98,93.13-23.88
			c2.3-1.74,4.28-4.32,7.69-4.05c3.34-0.35,5.55,1.93,8.08,3.46c-14.88,14.8-32.88,24.35-52.76,30.12
			C154.97,306.51,72.08,253.16,60.83,168.6C50.01,87.25,108.06,23.84,174.92,13.31c75.55-11.9,145.55,37.31,158.55,112.88
			C340.96,169.74,329.72,208.73,300.54,242.22z"/>
	</g>
</g>
</svg>
